<svg width="88" height="15" viewBox="0 0 88 15" fill="none" xmlns="http://www.w3.org/2000/svg">
<path d="M0.62 14V0.86H8.324V3.02H3.176V6.368L8.072 6.35V8.51L3.176 8.528V14H0.62ZM14.9813 14.342C13.8293 14.342 12.8573 14.108 12.0653 13.64C11.2733 13.16 10.6673 12.536 10.2473 11.768C9.83933 11 9.63533 10.184 9.63533 9.32V8.942C9.63533 8.042 9.84533 7.208 10.2653 6.44C10.6973 5.672 11.3093 5.054 12.1013 4.586C12.9053 4.118 13.8653 3.884 14.9813 3.884C16.0853 3.884 17.0333 4.118 17.8253 4.586C18.6293 5.054 19.2413 5.672 19.6613 6.44C20.0933 7.208 20.3093 8.042 20.3093 8.942V9.32C20.3093 10.184 20.0993 11 19.6793 11.768C19.2713 12.536 18.6713 13.16 17.8793 13.64C17.0873 14.108 16.1213 14.342 14.9813 14.342ZM14.9813 12.2C15.8933 12.2 16.5893 11.912 17.0693 11.336C17.5613 10.748 17.8073 10.01 17.8073 9.122C17.8073 8.234 17.5553 7.496 17.0513 6.908C16.5473 6.32 15.8573 6.026 14.9813 6.026C14.0933 6.026 13.3973 6.32 12.8933 6.908C12.3893 7.496 12.1373 8.234 12.1373 9.122C12.1373 10.01 12.3773 10.748 12.8573 11.336C13.3493 11.912 14.0573 12.2 14.9813 12.2ZM22.6261 14V2.732H21.4021V0.86H25.1281V14H22.6261ZM28.1105 14V2.732H26.8865V0.86H30.6125V14H28.1105ZM38.1669 14.342C37.0149 14.342 36.0429 14.108 35.2509 13.64C34.4589 13.16 33.8529 12.536 33.4329 11.768C33.0249 11 32.8209 10.184 32.8209 9.32V8.942C32.8209 8.042 33.0309 7.208 33.4509 6.44C33.8829 5.672 34.4949 5.054 35.2869 4.586C36.0909 4.118 37.0509 3.884 38.1669 3.884C39.2709 3.884 40.2189 4.118 41.0109 4.586C41.8149 5.054 42.4269 5.672 42.8469 6.44C43.2789 7.208 43.4949 8.042 43.4949 8.942V9.32C43.4949 10.184 43.2849 11 42.8649 11.768C42.4569 12.536 41.8569 13.16 41.0649 13.64C40.2729 14.108 39.3069 14.342 38.1669 14.342ZM38.1669 12.2C39.0789 12.2 39.7749 11.912 40.2549 11.336C40.7469 10.748 40.9929 10.01 40.9929 9.122C40.9929 8.234 40.7409 7.496 40.2369 6.908C39.7329 6.32 39.0429 6.026 38.1669 6.026C37.2789 6.026 36.5829 6.32 36.0789 6.908C35.5749 7.496 35.3229 8.234 35.3229 9.122C35.3229 10.01 35.5629 10.748 36.0429 11.336C36.5349 11.912 37.2429 12.2 38.1669 12.2ZM47.0767 14L44.4127 4.226H46.8427L48.8407 11.948H49.2187L50.6767 4.55H53.5567L55.2307 11.948H55.6087L57.3907 4.226H59.6587L57.3007 14H53.7187L52.0987 6.98L50.6587 14H47.0767ZM71.1298 14.342C69.8938 14.342 68.8558 14.108 68.0158 13.64C67.1758 13.172 66.5398 12.518 66.1078 11.678C65.6758 10.826 65.4598 9.83 65.4598 8.69V0.86H68.0158V8.834C68.0158 9.782 68.2798 10.544 68.8078 11.12C69.3478 11.684 70.1218 11.966 71.1298 11.966C72.1138 11.966 72.8698 11.684 73.3978 11.12C73.9378 10.556 74.2078 9.794 74.2078 8.834V0.86H76.7638V8.69C76.7638 9.83 76.5478 10.826 76.1158 11.678C75.6838 12.518 75.0478 13.172 74.2078 13.64C73.3798 14.108 72.3538 14.342 71.1298 14.342ZM83.1047 14.306C81.7607 14.306 80.7047 14.024 79.9367 13.46C79.1807 12.884 78.7847 12.092 78.7487 11.084H80.9987C81.0227 11.432 81.2027 11.744 81.5387 12.02C81.8867 12.284 82.4207 12.416 83.1407 12.416C83.7287 12.416 84.2027 12.308 84.5627 12.092C84.9227 11.876 85.1027 11.582 85.1027 11.21C85.1027 10.886 84.9647 10.634 84.6887 10.454C84.4247 10.262 83.9687 10.13 83.3207 10.058L82.4567 9.968C81.3527 9.848 80.5067 9.536 79.9187 9.032C79.3427 8.528 79.0547 7.856 79.0547 7.016C79.0547 6.356 79.2227 5.798 79.5587 5.342C79.8947 4.874 80.3567 4.526 80.9447 4.298C81.5447 4.058 82.2287 3.938 82.9967 3.938C84.1967 3.938 85.1687 4.208 85.9127 4.748C86.6567 5.276 87.0467 6.044 87.0827 7.052H84.8327C84.7967 6.716 84.6227 6.428 84.3107 6.188C84.0107 5.948 83.5667 5.828 82.9787 5.828C82.4507 5.828 82.0427 5.93 81.7547 6.134C81.4667 6.338 81.3227 6.602 81.3227 6.926C81.3227 7.238 81.4367 7.478 81.6647 7.646C81.8927 7.814 82.2767 7.928 82.8167 7.988L83.6807 8.078C84.8207 8.198 85.7207 8.516 86.3807 9.032C87.0407 9.548 87.3707 10.244 87.3707 11.12C87.3707 11.768 87.1907 12.332 86.8307 12.812C86.4827 13.28 85.9907 13.646 85.3547 13.91C84.7187 14.174 83.9687 14.306 83.1047 14.306Z" fill="#000958"/>
</svg>
